<svg viewBox="0 0 16 16" xmlns="http://www.w3.org/2000/svg">
  <path d="M16 5.455l-.012-.058-.011-.034c-.007-.016-.012-.033-.02-.05-.002-.012-.01-.022-.014-.033l-.023-.045-.02-.033-.03-.04-.03-.03-.04-.03-.03-.02-.04-.03-.03-.027-.01-.013L8.387.116a.681.681 0 00-.762 0L.302 5.001l-.01.01-.03.023-.04.033-.025.027-.033.038-.025.03-.033.04c-.013.011-.02.02-.02.03l-.033.04-.014.04c-.013.007-.013.027-.02.047l-.006.034C0 5.413 0 5.433 0 5.453v5.009c0 .029.002.06.007.09l.006.03c.004.02.007.04.014.058l.01.033c.006.018.01.036.018.05l.014.034c0 .007.01.027.02.04l.02.027c.01.006.02.026.03.04l.02.026.027.027c.007.009.007.02.02.02l.04.028.027.02.006.01 7.314 4.896c.109.08.25.109.38.109s.26-.04.38-.12l7.326-4.863.01-.007.03-.025.04-.028.032-.024.035-.04.022-.03.027-.04.02-.033.02-.047.01-.034.02-.052.01-.03.02-.053v-5.01c0-.034 0-.064-.01-.094l-.01-.03.03.002.015.013zM8.007 9.65L5.573 8.02l2.434-1.631 2.433 1.63-2.433 1.63v.001zm-.69-4.458L4.335 7.189 1.927 5.575l5.39-3.6v3.218-.001zm-4.22 2.827L1.376 9.175V6.87l1.721 1.153v-.004zm1.238.835l2.982 1.998v3.22l-5.39-3.602 2.412-1.614v-.003l-.004.001zm4.358 1.998l2.983-1.99 2.409 1.616-5.392 3.6v-3.226zm4.22-2.826l1.722-1.149v2.309L12.913 8.03v-.004zm-1.236-.828L8.695 5.2V1.973l5.39 3.6-2.408 1.614v.011z" fill="#EFEFEF" fill-rule="nonzero"/>
</svg>